<svg width="142" height="127" viewBox="0 0 142 127" fill="none" xmlns="http://www.w3.org/2000/svg">
<rect width="142" height="127" fill="#F0F0F0"/>
<path d="M72.8846 62.7638C84.0304 62.7638 93.066 53.7283 93.066 42.5824C93.066 31.4365 84.0304 22.401 72.8846 22.401C61.7387 22.401 52.7032 31.4365 52.7032 42.5824C52.7032 53.7283 61.7387 62.7638 72.8846 62.7638Z" fill="#FFB8B8"/>
<path d="M53.7918 48.8965C53.7918 48.8965 55.5065 45.8852 55.1078 35.8256C54.7092 25.7661 70.0276 31.4557 82.8276 30.496C95.6277 29.5364 92.9181 47.2907 92.9181 47.2907C92.9181 47.2907 93.8416 46.2353 95.8187 37.6666C97.7958 29.0978 93.3067 20.5587 93.3067 20.5587C91.9846 11.5545 84.8594 14.4403 84.8594 14.4403C88.2908 15.7761 87.6318 18.6324 87.6318 18.6324C84.7272 13.5399 77.6021 16.4258 77.6021 16.4258C68.0992 10.4625 58.4681 18.3154 58.4681 18.3154C46.9881 20.9208 53.7206 30.0504 53.7206 30.0504C42.1756 35.8848 53.7918 48.8965 53.7918 48.8965Z" fill="#2F2E41"/>
<path d="M106.559 89.9472C100.807 86.9158 94.802 84.389 88.613 82.3949L87.8231 73.6649L55.8176 70.2168L51.7501 81.3751L40.2641 85.6855C39.8529 85.8413 39.4615 86.0451 39.0979 86.2924H39.0855C37.205 86.4517 35.394 87.0777 33.8165 88.1137C32.7465 88.7967 31.7952 89.6498 31 90.6393C32.554 91.817 34.1681 92.9098 35.8317 93.9541L35.905 93.9904C36.3786 94.2818 36.8645 94.5733 37.3495 94.8526C38.2242 95.3746 39.1226 95.8724 40.0211 96.3459L40.5919 96.6374C41.9029 97.3173 43.2387 97.9608 44.6108 98.5557C44.8899 98.6772 45.1939 98.7986 45.4731 98.9201C45.4969 98.9322 45.5093 98.9322 45.5331 98.9444C46.1771 99.2115 46.8203 99.4663 47.4758 99.7092C49.6297 100.532 51.8266 101.237 54.0568 101.822C59.7486 103.339 65.614 104.106 71.5045 104.105C73.654 104.105 75.7788 104.007 77.8797 103.801C82.6791 103.358 87.4172 102.401 92.0126 100.948C92.024 100.948 92.0374 100.936 92.0488 100.936C94.9519 100.011 97.7878 98.887 100.536 97.5723C100.548 97.5601 100.573 97.5601 100.585 97.548C101.204 97.2566 101.799 96.9409 102.406 96.6374L102.697 96.4916C103.183 96.2367 103.669 95.9818 104.155 95.7146C105.369 95.0468 106.559 94.3426 107.736 93.5898C108.063 93.3955 108.38 93.1891 108.708 92.9706C109.169 92.667 109.63 92.3513 110.08 92.0235C108.951 91.2949 107.773 90.6028 106.559 89.9472Z" fill="#6C63FF"/>
</svg>
